<?xml version="1.0" encoding="utf-8" standalone="no"?>
<!DOCTYPE svg PUBLIC "-//W3C//DTD SVG 1.1//EN"
  "http://www.w3.org/Graphics/SVG/1.1/DTD/svg11.dtd">
<!-- Created with matplotlib (https://matplotlib.org/) -->
<svg height="704.88pt" version="1.1" viewBox="0 0 1353.6 704.88" width="1353.6pt" xmlns="http://www.w3.org/2000/svg" xmlns:xlink="http://www.w3.org/1999/xlink">
 <defs>
  <style type="text/css">
*{stroke-linecap:butt;stroke-linejoin:round;}
  </style>
 </defs>
 <g id="figure_1">
  <g id="patch_1">
   <path d="M 0 704.88 
L 1353.6 704.88 
L 1353.6 0 
L 0 0 
z
" style="fill:#ffffff;"/>
  </g>
  <g id="axes_1">
   <g id="patch_2">
    <path d="M 169.2 627.3432 
L 1218.24 627.3432 
L 1218.24 84.5856 
L 169.2 84.5856 
z
" style="fill:#ffffff;"/>
   </g>
   <g id="matplotlib.axis_1">
    <g id="xtick_1">
     <g id="line2d_1">
      <path clip-path="url(#p5d1b309da8)" d="M 216.883636 627.3432 
L 216.883636 84.5856 
" style="fill:none;stroke:#b0b0b0;stroke-linecap:square;stroke-width:0.8;"/>
     </g>
     <g id="line2d_2">
      <defs>
       <path d="M 0 0 
L 0 3.5 
" id="m469caa446d" style="stroke:#000000;stroke-width:0.8;"/>
      </defs>
      <g>
       <use style="stroke:#000000;stroke-width:0.8;" x="216.883636" xlink:href="#m469caa446d" y="627.3432"/>
      </g>
     </g>
     <g id="text_1">
      <!-- 10 -->
      <defs>
       <path d="M 12.40625 8.296875 
L 28.515625 8.296875 
L 28.515625 63.921875 
L 10.984375 60.40625 
L 10.984375 69.390625 
L 28.421875 72.90625 
L 38.28125 72.90625 
L 38.28125 8.296875 
L 54.390625 8.296875 
L 54.390625 0 
L 12.40625 0 
z
" id="DejaVuSans-49"/>
       <path d="M 31.78125 66.40625 
Q 24.171875 66.40625 20.328125 58.90625 
Q 16.5 51.421875 16.5 36.375 
Q 16.5 21.390625 20.328125 13.890625 
Q 24.171875 6.390625 31.78125 6.390625 
Q 39.453125 6.390625 43.28125 13.890625 
Q 47.125 21.390625 47.125 36.375 
Q 47.125 51.421875 43.28125 58.90625 
Q 39.453125 66.40625 31.78125 66.40625 
z
M 31.78125 74.21875 
Q 44.046875 74.21875 50.515625 64.515625 
Q 56.984375 54.828125 56.984375 36.375 
Q 56.984375 17.96875 50.515625 8.265625 
Q 44.046875 -1.421875 31.78125 -1.421875 
Q 19.53125 -1.421875 13.0625 8.265625 
Q 6.59375 17.96875 6.59375 36.375 
Q 6.59375 54.828125 13.0625 64.515625 
Q 19.53125 74.21875 31.78125 74.21875 
z
" id="DejaVuSans-48"/>
      </defs>
      <g transform="translate(210.521136 641.941637)scale(0.1 -0.1)">
       <use xlink:href="#DejaVuSans-49"/>
       <use x="63.623047" xlink:href="#DejaVuSans-48"/>
      </g>
     </g>
    </g>
    <g id="xtick_2">
     <g id="line2d_3">
      <path clip-path="url(#p5d1b309da8)" d="M 353.122597 627.3432 
L 353.122597 84.5856 
" style="fill:none;stroke:#b0b0b0;stroke-linecap:square;stroke-width:0.8;"/>
     </g>
     <g id="line2d_4">
      <g>
       <use style="stroke:#000000;stroke-width:0.8;" x="353.122597" xlink:href="#m469caa446d" y="627.3432"/>
      </g>
     </g>
     <g id="text_2">
      <!-- 20 -->
      <defs>
       <path d="M 19.1875 8.296875 
L 53.609375 8.296875 
L 53.609375 0 
L 7.328125 0 
L 7.328125 8.296875 
Q 12.9375 14.109375 22.625 23.890625 
Q 32.328125 33.6875 34.8125 36.53125 
Q 39.546875 41.84375 41.421875 45.53125 
Q 43.3125 49.21875 43.3125 52.78125 
Q 43.3125 58.59375 39.234375 62.25 
Q 35.15625 65.921875 28.609375 65.921875 
Q 23.96875 65.921875 18.8125 64.3125 
Q 13.671875 62.703125 7.8125 59.421875 
L 7.8125 69.390625 
Q 13.765625 71.78125 18.9375 73 
Q 24.125 74.21875 28.421875 74.21875 
Q 39.75 74.21875 46.484375 68.546875 
Q 53.21875 62.890625 53.21875 53.421875 
Q 53.21875 48.921875 51.53125 44.890625 
Q 49.859375 40.875 45.40625 35.40625 
Q 44.1875 33.984375 37.640625 27.21875 
Q 31.109375 20.453125 19.1875 8.296875 
z
" id="DejaVuSans-50"/>
      </defs>
      <g transform="translate(346.760097 641.941637)scale(0.1 -0.1)">
       <use xlink:href="#DejaVuSans-50"/>
       <use x="63.623047" xlink:href="#DejaVuSans-48"/>
      </g>
     </g>
    </g>
    <g id="xtick_3">
     <g id="line2d_5">
      <path clip-path="url(#p5d1b309da8)" d="M 489.361558 627.3432 
L 489.361558 84.5856 
" style="fill:none;stroke:#b0b0b0;stroke-linecap:square;stroke-width:0.8;"/>
     </g>
     <g id="line2d_6">
      <g>
       <use style="stroke:#000000;stroke-width:0.8;" x="489.361558" xlink:href="#m469caa446d" y="627.3432"/>
      </g>
     </g>
     <g id="text_3">
      <!-- 30 -->
      <defs>
       <path d="M 40.578125 39.3125 
Q 47.65625 37.796875 51.625 33 
Q 55.609375 28.21875 55.609375 21.1875 
Q 55.609375 10.40625 48.1875 4.484375 
Q 40.765625 -1.421875 27.09375 -1.421875 
Q 22.515625 -1.421875 17.65625 -0.515625 
Q 12.796875 0.390625 7.625 2.203125 
L 7.625 11.71875 
Q 11.71875 9.328125 16.59375 8.109375 
Q 21.484375 6.890625 26.8125 6.890625 
Q 36.078125 6.890625 40.9375 10.546875 
Q 45.796875 14.203125 45.796875 21.1875 
Q 45.796875 27.640625 41.28125 31.265625 
Q 36.765625 34.90625 28.71875 34.90625 
L 20.21875 34.90625 
L 20.21875 43.015625 
L 29.109375 43.015625 
Q 36.375 43.015625 40.234375 45.921875 
Q 44.09375 48.828125 44.09375 54.296875 
Q 44.09375 59.90625 40.109375 62.90625 
Q 36.140625 65.921875 28.71875 65.921875 
Q 24.65625 65.921875 20.015625 65.03125 
Q 15.375 64.15625 9.8125 62.3125 
L 9.8125 71.09375 
Q 15.4375 72.65625 20.34375 73.4375 
Q 25.25 74.21875 29.59375 74.21875 
Q 40.828125 74.21875 47.359375 69.109375 
Q 53.90625 64.015625 53.90625 55.328125 
Q 53.90625 49.265625 50.4375 45.09375 
Q 46.96875 40.921875 40.578125 39.3125 
z
" id="DejaVuSans-51"/>
      </defs>
      <g transform="translate(482.999058 641.941637)scale(0.1 -0.1)">
       <use xlink:href="#DejaVuSans-51"/>
       <use x="63.623047" xlink:href="#DejaVuSans-48"/>
      </g>
     </g>
    </g>
    <g id="xtick_4">
     <g id="line2d_7">
      <path clip-path="url(#p5d1b309da8)" d="M 625.600519 627.3432 
L 625.600519 84.5856 
" style="fill:none;stroke:#b0b0b0;stroke-linecap:square;stroke-width:0.8;"/>
     </g>
     <g id="line2d_8">
      <g>
       <use style="stroke:#000000;stroke-width:0.8;" x="625.600519" xlink:href="#m469caa446d" y="627.3432"/>
      </g>
     </g>
     <g id="text_4">
      <!-- 40 -->
      <defs>
       <path d="M 37.796875 64.3125 
L 12.890625 25.390625 
L 37.796875 25.390625 
z
M 35.203125 72.90625 
L 47.609375 72.90625 
L 47.609375 25.390625 
L 58.015625 25.390625 
L 58.015625 17.1875 
L 47.609375 17.1875 
L 47.609375 0 
L 37.796875 0 
L 37.796875 17.1875 
L 4.890625 17.1875 
L 4.890625 26.703125 
z
" id="DejaVuSans-52"/>
      </defs>
      <g transform="translate(619.238019 641.941637)scale(0.1 -0.1)">
       <use xlink:href="#DejaVuSans-52"/>
       <use x="63.623047" xlink:href="#DejaVuSans-48"/>
      </g>
     </g>
    </g>
    <g id="xtick_5">
     <g id="line2d_9">
      <path clip-path="url(#p5d1b309da8)" d="M 761.839481 627.3432 
L 761.839481 84.5856 
" style="fill:none;stroke:#b0b0b0;stroke-linecap:square;stroke-width:0.8;"/>
     </g>
     <g id="line2d_10">
      <g>
       <use style="stroke:#000000;stroke-width:0.8;" x="761.839481" xlink:href="#m469caa446d" y="627.3432"/>
      </g>
     </g>
     <g id="text_5">
      <!-- 50 -->
      <defs>
       <path d="M 10.796875 72.90625 
L 49.515625 72.90625 
L 49.515625 64.59375 
L 19.828125 64.59375 
L 19.828125 46.734375 
Q 21.96875 47.46875 24.109375 47.828125 
Q 26.265625 48.1875 28.421875 48.1875 
Q 40.625 48.1875 47.75 41.5 
Q 54.890625 34.8125 54.890625 23.390625 
Q 54.890625 11.625 47.5625 5.09375 
Q 40.234375 -1.421875 26.90625 -1.421875 
Q 22.3125 -1.421875 17.546875 -0.640625 
Q 12.796875 0.140625 7.71875 1.703125 
L 7.71875 11.625 
Q 12.109375 9.234375 16.796875 8.0625 
Q 21.484375 6.890625 26.703125 6.890625 
Q 35.15625 6.890625 40.078125 11.328125 
Q 45.015625 15.765625 45.015625 23.390625 
Q 45.015625 31 40.078125 35.4375 
Q 35.15625 39.890625 26.703125 39.890625 
Q 22.75 39.890625 18.8125 39.015625 
Q 14.890625 38.140625 10.796875 36.28125 
z
" id="DejaVuSans-53"/>
      </defs>
      <g transform="translate(755.476981 641.941637)scale(0.1 -0.1)">
       <use xlink:href="#DejaVuSans-53"/>
       <use x="63.623047" xlink:href="#DejaVuSans-48"/>
      </g>
     </g>
    </g>
    <g id="xtick_6">
     <g id="line2d_11">
      <path clip-path="url(#p5d1b309da8)" d="M 898.078442 627.3432 
L 898.078442 84.5856 
" style="fill:none;stroke:#b0b0b0;stroke-linecap:square;stroke-width:0.8;"/>
     </g>
     <g id="line2d_12">
      <g>
       <use style="stroke:#000000;stroke-width:0.8;" x="898.078442" xlink:href="#m469caa446d" y="627.3432"/>
      </g>
     </g>
     <g id="text_6">
      <!-- 60 -->
      <defs>
       <path d="M 33.015625 40.375 
Q 26.375 40.375 22.484375 35.828125 
Q 18.609375 31.296875 18.609375 23.390625 
Q 18.609375 15.53125 22.484375 10.953125 
Q 26.375 6.390625 33.015625 6.390625 
Q 39.65625 6.390625 43.53125 10.953125 
Q 47.40625 15.53125 47.40625 23.390625 
Q 47.40625 31.296875 43.53125 35.828125 
Q 39.65625 40.375 33.015625 40.375 
z
M 52.59375 71.296875 
L 52.59375 62.3125 
Q 48.875 64.0625 45.09375 64.984375 
Q 41.3125 65.921875 37.59375 65.921875 
Q 27.828125 65.921875 22.671875 59.328125 
Q 17.53125 52.734375 16.796875 39.40625 
Q 19.671875 43.65625 24.015625 45.921875 
Q 28.375 48.1875 33.59375 48.1875 
Q 44.578125 48.1875 50.953125 41.515625 
Q 57.328125 34.859375 57.328125 23.390625 
Q 57.328125 12.15625 50.6875 5.359375 
Q 44.046875 -1.421875 33.015625 -1.421875 
Q 20.359375 -1.421875 13.671875 8.265625 
Q 6.984375 17.96875 6.984375 36.375 
Q 6.984375 53.65625 15.1875 63.9375 
Q 23.390625 74.21875 37.203125 74.21875 
Q 40.921875 74.21875 44.703125 73.484375 
Q 48.484375 72.75 52.59375 71.296875 
z
" id="DejaVuSans-54"/>
      </defs>
      <g transform="translate(891.715942 641.941637)scale(0.1 -0.1)">
       <use xlink:href="#DejaVuSans-54"/>
       <use x="63.623047" xlink:href="#DejaVuSans-48"/>
      </g>
     </g>
    </g>
    <g id="xtick_7">
     <g id="line2d_13">
      <path clip-path="url(#p5d1b309da8)" d="M 1034.317403 627.3432 
L 1034.317403 84.5856 
" style="fill:none;stroke:#b0b0b0;stroke-linecap:square;stroke-width:0.8;"/>
     </g>
     <g id="line2d_14">
      <g>
       <use style="stroke:#000000;stroke-width:0.8;" x="1034.317403" xlink:href="#m469caa446d" y="627.3432"/>
      </g>
     </g>
     <g id="text_7">
      <!-- 70 -->
      <defs>
       <path d="M 8.203125 72.90625 
L 55.078125 72.90625 
L 55.078125 68.703125 
L 28.609375 0 
L 18.3125 0 
L 43.21875 64.59375 
L 8.203125 64.59375 
z
" id="DejaVuSans-55"/>
      </defs>
      <g transform="translate(1027.954903 641.941637)scale(0.1 -0.1)">
       <use xlink:href="#DejaVuSans-55"/>
       <use x="63.623047" xlink:href="#DejaVuSans-48"/>
      </g>
     </g>
    </g>
    <g id="xtick_8">
     <g id="line2d_15">
      <path clip-path="url(#p5d1b309da8)" d="M 1170.556364 627.3432 
L 1170.556364 84.5856 
" style="fill:none;stroke:#b0b0b0;stroke-linecap:square;stroke-width:0.8;"/>
     </g>
     <g id="line2d_16">
      <g>
       <use style="stroke:#000000;stroke-width:0.8;" x="1170.556364" xlink:href="#m469caa446d" y="627.3432"/>
      </g>
     </g>
     <g id="text_8">
      <!-- 80 -->
      <defs>
       <path d="M 31.78125 34.625 
Q 24.75 34.625 20.71875 30.859375 
Q 16.703125 27.09375 16.703125 20.515625 
Q 16.703125 13.921875 20.71875 10.15625 
Q 24.75 6.390625 31.78125 6.390625 
Q 38.8125 6.390625 42.859375 10.171875 
Q 46.921875 13.96875 46.921875 20.515625 
Q 46.921875 27.09375 42.890625 30.859375 
Q 38.875 34.625 31.78125 34.625 
z
M 21.921875 38.8125 
Q 15.578125 40.375 12.03125 44.71875 
Q 8.5 49.078125 8.5 55.328125 
Q 8.5 64.0625 14.71875 69.140625 
Q 20.953125 74.21875 31.78125 74.21875 
Q 42.671875 74.21875 48.875 69.140625 
Q 55.078125 64.0625 55.078125 55.328125 
Q 55.078125 49.078125 51.53125 44.71875 
Q 48 40.375 41.703125 38.8125 
Q 48.828125 37.15625 52.796875 32.3125 
Q 56.78125 27.484375 56.78125 20.515625 
Q 56.78125 9.90625 50.3125 4.234375 
Q 43.84375 -1.421875 31.78125 -1.421875 
Q 19.734375 -1.421875 13.25 4.234375 
Q 6.78125 9.90625 6.78125 20.515625 
Q 6.78125 27.484375 10.78125 32.3125 
Q 14.796875 37.15625 21.921875 38.8125 
z
M 18.3125 54.390625 
Q 18.3125 48.734375 21.84375 45.5625 
Q 25.390625 42.390625 31.78125 42.390625 
Q 38.140625 42.390625 41.71875 45.5625 
Q 45.3125 48.734375 45.3125 54.390625 
Q 45.3125 60.0625 41.71875 63.234375 
Q 38.140625 66.40625 31.78125 66.40625 
Q 25.390625 66.40625 21.84375 63.234375 
Q 18.3125 60.0625 18.3125 54.390625 
z
" id="DejaVuSans-56"/>
      </defs>
      <g transform="translate(1164.193864 641.941637)scale(0.1 -0.1)">
       <use xlink:href="#DejaVuSans-56"/>
       <use x="63.623047" xlink:href="#DejaVuSans-48"/>
      </g>
     </g>
    </g>
    <g id="text_9">
     <!-- Distance in cm -->
     <defs>
      <path d="M 19.671875 64.796875 
L 19.671875 8.109375 
L 31.59375 8.109375 
Q 46.6875 8.109375 53.6875 14.9375 
Q 60.6875 21.78125 60.6875 36.53125 
Q 60.6875 51.171875 53.6875 57.984375 
Q 46.6875 64.796875 31.59375 64.796875 
z
M 9.8125 72.90625 
L 30.078125 72.90625 
Q 51.265625 72.90625 61.171875 64.09375 
Q 71.09375 55.28125 71.09375 36.53125 
Q 71.09375 17.671875 61.125 8.828125 
Q 51.171875 0 30.078125 0 
L 9.8125 0 
z
" id="DejaVuSans-68"/>
      <path d="M 9.421875 54.6875 
L 18.40625 54.6875 
L 18.40625 0 
L 9.421875 0 
z
M 9.421875 75.984375 
L 18.40625 75.984375 
L 18.40625 64.59375 
L 9.421875 64.59375 
z
" id="DejaVuSans-105"/>
      <path d="M 44.28125 53.078125 
L 44.28125 44.578125 
Q 40.484375 46.53125 36.375 47.5 
Q 32.28125 48.484375 27.875 48.484375 
Q 21.1875 48.484375 17.84375 46.4375 
Q 14.5 44.390625 14.5 40.28125 
Q 14.5 37.15625 16.890625 35.375 
Q 19.28125 33.59375 26.515625 31.984375 
L 29.59375 31.296875 
Q 39.15625 29.25 43.1875 25.515625 
Q 47.21875 21.78125 47.21875 15.09375 
Q 47.21875 7.46875 41.1875 3.015625 
Q 35.15625 -1.421875 24.609375 -1.421875 
Q 20.21875 -1.421875 15.453125 -0.5625 
Q 10.6875 0.296875 5.421875 2 
L 5.421875 11.28125 
Q 10.40625 8.6875 15.234375 7.390625 
Q 20.0625 6.109375 24.8125 6.109375 
Q 31.15625 6.109375 34.5625 8.28125 
Q 37.984375 10.453125 37.984375 14.40625 
Q 37.984375 18.0625 35.515625 20.015625 
Q 33.0625 21.96875 24.703125 23.78125 
L 21.578125 24.515625 
Q 13.234375 26.265625 9.515625 29.90625 
Q 5.8125 33.546875 5.8125 39.890625 
Q 5.8125 47.609375 11.28125 51.796875 
Q 16.75 56 26.8125 56 
Q 31.78125 56 36.171875 55.265625 
Q 40.578125 54.546875 44.28125 53.078125 
z
" id="DejaVuSans-115"/>
      <path d="M 18.3125 70.21875 
L 18.3125 54.6875 
L 36.8125 54.6875 
L 36.8125 47.703125 
L 18.3125 47.703125 
L 18.3125 18.015625 
Q 18.3125 11.328125 20.140625 9.421875 
Q 21.96875 7.515625 27.59375 7.515625 
L 36.8125 7.515625 
L 36.8125 0 
L 27.59375 0 
Q 17.1875 0 13.234375 3.875 
Q 9.28125 7.765625 9.28125 18.015625 
L 9.28125 47.703125 
L 2.6875 47.703125 
L 2.6875 54.6875 
L 9.28125 54.6875 
L 9.28125 70.21875 
z
" id="DejaVuSans-116"/>
      <path d="M 34.28125 27.484375 
Q 23.390625 27.484375 19.1875 25 
Q 14.984375 22.515625 14.984375 16.5 
Q 14.984375 11.71875 18.140625 8.90625 
Q 21.296875 6.109375 26.703125 6.109375 
Q 34.1875 6.109375 38.703125 11.40625 
Q 43.21875 16.703125 43.21875 25.484375 
L 43.21875 27.484375 
z
M 52.203125 31.203125 
L 52.203125 0 
L 43.21875 0 
L 43.21875 8.296875 
Q 40.140625 3.328125 35.546875 0.953125 
Q 30.953125 -1.421875 24.3125 -1.421875 
Q 15.921875 -1.421875 10.953125 3.296875 
Q 6 8.015625 6 15.921875 
Q 6 25.140625 12.171875 29.828125 
Q 18.359375 34.515625 30.609375 34.515625 
L 43.21875 34.515625 
L 43.21875 35.40625 
Q 43.21875 41.609375 39.140625 45 
Q 35.0625 48.390625 27.6875 48.390625 
Q 23 48.390625 18.546875 47.265625 
Q 14.109375 46.140625 10.015625 43.890625 
L 10.015625 52.203125 
Q 14.9375 54.109375 19.578125 55.046875 
Q 24.21875 56 28.609375 56 
Q 40.484375 56 46.34375 49.84375 
Q 52.203125 43.703125 52.203125 31.203125 
z
" id="DejaVuSans-97"/>
      <path d="M 54.890625 33.015625 
L 54.890625 0 
L 45.90625 0 
L 45.90625 32.71875 
Q 45.90625 40.484375 42.875 44.328125 
Q 39.84375 48.1875 33.796875 48.1875 
Q 26.515625 48.1875 22.3125 43.546875 
Q 18.109375 38.921875 18.109375 30.90625 
L 18.109375 0 
L 9.078125 0 
L 9.078125 54.6875 
L 18.109375 54.6875 
L 18.109375 46.1875 
Q 21.34375 51.125 25.703125 53.5625 
Q 30.078125 56 35.796875 56 
Q 45.21875 56 50.046875 50.171875 
Q 54.890625 44.34375 54.890625 33.015625 
z
" id="DejaVuSans-110"/>
      <path d="M 48.78125 52.59375 
L 48.78125 44.1875 
Q 44.96875 46.296875 41.140625 47.34375 
Q 37.3125 48.390625 33.40625 48.390625 
Q 24.65625 48.390625 19.8125 42.84375 
Q 14.984375 37.3125 14.984375 27.296875 
Q 14.984375 17.28125 19.8125 11.734375 
Q 24.65625 6.203125 33.40625 6.203125 
Q 37.3125 6.203125 41.140625 7.25 
Q 44.96875 8.296875 48.78125 10.40625 
L 48.78125 2.09375 
Q 45.015625 0.34375 40.984375 -0.53125 
Q 36.96875 -1.421875 32.421875 -1.421875 
Q 20.0625 -1.421875 12.78125 6.34375 
Q 5.515625 14.109375 5.515625 27.296875 
Q 5.515625 40.671875 12.859375 48.328125 
Q 20.21875 56 33.015625 56 
Q 37.15625 56 41.109375 55.140625 
Q 45.0625 54.296875 48.78125 52.59375 
z
" id="DejaVuSans-99"/>
      <path d="M 56.203125 29.59375 
L 56.203125 25.203125 
L 14.890625 25.203125 
Q 15.484375 15.921875 20.484375 11.0625 
Q 25.484375 6.203125 34.421875 6.203125 
Q 39.59375 6.203125 44.453125 7.46875 
Q 49.3125 8.734375 54.109375 11.28125 
L 54.109375 2.78125 
Q 49.265625 0.734375 44.1875 -0.34375 
Q 39.109375 -1.421875 33.890625 -1.421875 
Q 20.796875 -1.421875 13.15625 6.1875 
Q 5.515625 13.8125 5.515625 26.8125 
Q 5.515625 40.234375 12.765625 48.109375 
Q 20.015625 56 32.328125 56 
Q 43.359375 56 49.78125 48.890625 
Q 56.203125 41.796875 56.203125 29.59375 
z
M 47.21875 32.234375 
Q 47.125 39.59375 43.09375 43.984375 
Q 39.0625 48.390625 32.421875 48.390625 
Q 24.90625 48.390625 20.390625 44.140625 
Q 15.875 39.890625 15.1875 32.171875 
z
" id="DejaVuSans-101"/>
      <path id="DejaVuSans-32"/>
      <path d="M 52 44.1875 
Q 55.375 50.25 60.0625 53.125 
Q 64.75 56 71.09375 56 
Q 79.640625 56 84.28125 50.015625 
Q 88.921875 44.046875 88.921875 33.015625 
L 88.921875 0 
L 79.890625 0 
L 79.890625 32.71875 
Q 79.890625 40.578125 77.09375 44.375 
Q 74.3125 48.1875 68.609375 48.1875 
Q 61.625 48.1875 57.5625 43.546875 
Q 53.515625 38.921875 53.515625 30.90625 
L 53.515625 0 
L 44.484375 0 
L 44.484375 32.71875 
Q 44.484375 40.625 41.703125 44.40625 
Q 38.921875 48.1875 33.109375 48.1875 
Q 26.21875 48.1875 22.15625 43.53125 
Q 18.109375 38.875 18.109375 30.90625 
L 18.109375 0 
L 9.078125 0 
L 9.078125 54.6875 
L 18.109375 54.6875 
L 18.109375 46.1875 
Q 21.1875 51.21875 25.484375 53.609375 
Q 29.78125 56 35.6875 56 
Q 41.65625 56 45.828125 52.96875 
Q 50 49.953125 52 44.1875 
z
" id="DejaVuSans-109"/>
     </defs>
     <g transform="translate(656.502031 655.619762)scale(0.1 -0.1)">
      <use xlink:href="#DejaVuSans-68"/>
      <use x="77.001953" xlink:href="#DejaVuSans-105"/>
      <use x="104.785156" xlink:href="#DejaVuSans-115"/>
      <use x="156.884766" xlink:href="#DejaVuSans-116"/>
      <use x="196.09375" xlink:href="#DejaVuSans-97"/>
      <use x="257.373047" xlink:href="#DejaVuSans-110"/>
      <use x="320.751953" xlink:href="#DejaVuSans-99"/>
      <use x="375.732422" xlink:href="#DejaVuSans-101"/>
      <use x="437.255859" xlink:href="#DejaVuSans-32"/>
      <use x="469.042969" xlink:href="#DejaVuSans-105"/>
      <use x="496.826172" xlink:href="#DejaVuSans-110"/>
      <use x="560.205078" xlink:href="#DejaVuSans-32"/>
      <use x="591.992188" xlink:href="#DejaVuSans-99"/>
      <use x="646.972656" xlink:href="#DejaVuSans-109"/>
     </g>
    </g>
   </g>
   <g id="matplotlib.axis_2">
    <g id="ytick_1">
     <g id="line2d_17">
      <path clip-path="url(#p5d1b309da8)" d="M 169.2 612.415262 
L 1218.24 612.415262 
" style="fill:none;stroke:#b0b0b0;stroke-linecap:square;stroke-width:0.8;"/>
     </g>
     <g id="line2d_18">
      <defs>
       <path d="M 0 0 
L -3.5 0 
" id="m37d53d4c34" style="stroke:#000000;stroke-width:0.8;"/>
      </defs>
      <g>
       <use style="stroke:#000000;stroke-width:0.8;" x="169.2" xlink:href="#m37d53d4c34" y="612.415262"/>
      </g>
     </g>
     <g id="text_10">
      <!-- 0.2 -->
      <defs>
       <path d="M 10.6875 12.40625 
L 21 12.40625 
L 21 0 
L 10.6875 0 
z
" id="DejaVuSans-46"/>
      </defs>
      <g transform="translate(146.296875 616.214481)scale(0.1 -0.1)">
       <use xlink:href="#DejaVuSans-48"/>
       <use x="63.623047" xlink:href="#DejaVuSans-46"/>
       <use x="95.410156" xlink:href="#DejaVuSans-50"/>
      </g>
     </g>
    </g>
    <g id="ytick_2">
     <g id="line2d_19">
      <path clip-path="url(#p5d1b309da8)" d="M 169.2 517.734057 
L 1218.24 517.734057 
" style="fill:none;stroke:#b0b0b0;stroke-linecap:square;stroke-width:0.8;"/>
     </g>
     <g id="line2d_20">
      <g>
       <use style="stroke:#000000;stroke-width:0.8;" x="169.2" xlink:href="#m37d53d4c34" y="517.734057"/>
      </g>
     </g>
     <g id="text_11">
      <!-- 0.4 -->
      <g transform="translate(146.296875 521.533276)scale(0.1 -0.1)">
       <use xlink:href="#DejaVuSans-48"/>
       <use x="63.623047" xlink:href="#DejaVuSans-46"/>
       <use x="95.410156" xlink:href="#DejaVuSans-52"/>
      </g>
     </g>
    </g>
    <g id="ytick_3">
     <g id="line2d_21">
      <path clip-path="url(#p5d1b309da8)" d="M 169.2 423.052853 
L 1218.24 423.052853 
" style="fill:none;stroke:#b0b0b0;stroke-linecap:square;stroke-width:0.8;"/>
     </g>
     <g id="line2d_22">
      <g>
       <use style="stroke:#000000;stroke-width:0.8;" x="169.2" xlink:href="#m37d53d4c34" y="423.052853"/>
      </g>
     </g>
     <g id="text_12">
      <!-- 0.6 -->
      <g transform="translate(146.296875 426.852072)scale(0.1 -0.1)">
       <use xlink:href="#DejaVuSans-48"/>
       <use x="63.623047" xlink:href="#DejaVuSans-46"/>
       <use x="95.410156" xlink:href="#DejaVuSans-54"/>
      </g>
     </g>
    </g>
    <g id="ytick_4">
     <g id="line2d_23">
      <path clip-path="url(#p5d1b309da8)" d="M 169.2 328.371648 
L 1218.24 328.371648 
" style="fill:none;stroke:#b0b0b0;stroke-linecap:square;stroke-width:0.8;"/>
     </g>
     <g id="line2d_24">
      <g>
       <use style="stroke:#000000;stroke-width:0.8;" x="169.2" xlink:href="#m37d53d4c34" y="328.371648"/>
      </g>
     </g>
     <g id="text_13">
      <!-- 0.8 -->
      <g transform="translate(146.296875 332.170867)scale(0.1 -0.1)">
       <use xlink:href="#DejaVuSans-48"/>
       <use x="63.623047" xlink:href="#DejaVuSans-46"/>
       <use x="95.410156" xlink:href="#DejaVuSans-56"/>
      </g>
     </g>
    </g>
    <g id="ytick_5">
     <g id="line2d_25">
      <path clip-path="url(#p5d1b309da8)" d="M 169.2 233.690444 
L 1218.24 233.690444 
" style="fill:none;stroke:#b0b0b0;stroke-linecap:square;stroke-width:0.8;"/>
     </g>
     <g id="line2d_26">
      <g>
       <use style="stroke:#000000;stroke-width:0.8;" x="169.2" xlink:href="#m37d53d4c34" y="233.690444"/>
      </g>
     </g>
     <g id="text_14">
      <!-- 1.0 -->
      <g transform="translate(146.296875 237.489662)scale(0.1 -0.1)">
       <use xlink:href="#DejaVuSans-49"/>
       <use x="63.623047" xlink:href="#DejaVuSans-46"/>
       <use x="95.410156" xlink:href="#DejaVuSans-48"/>
      </g>
     </g>
    </g>
    <g id="ytick_6">
     <g id="line2d_27">
      <path clip-path="url(#p5d1b309da8)" d="M 169.2 139.009239 
L 1218.24 139.009239 
" style="fill:none;stroke:#b0b0b0;stroke-linecap:square;stroke-width:0.8;"/>
     </g>
     <g id="line2d_28">
      <g>
       <use style="stroke:#000000;stroke-width:0.8;" x="169.2" xlink:href="#m37d53d4c34" y="139.009239"/>
      </g>
     </g>
     <g id="text_15">
      <!-- 1.2 -->
      <g transform="translate(146.296875 142.808458)scale(0.1 -0.1)">
       <use xlink:href="#DejaVuSans-49"/>
       <use x="63.623047" xlink:href="#DejaVuSans-46"/>
       <use x="95.410156" xlink:href="#DejaVuSans-50"/>
      </g>
     </g>
    </g>
    <g id="text_16">
     <!-- Spannung in V -->
     <defs>
      <path d="M 53.515625 70.515625 
L 53.515625 60.890625 
Q 47.90625 63.578125 42.921875 64.890625 
Q 37.9375 66.21875 33.296875 66.21875 
Q 25.25 66.21875 20.875 63.09375 
Q 16.5 59.96875 16.5 54.203125 
Q 16.5 49.359375 19.40625 46.890625 
Q 22.3125 44.4375 30.421875 42.921875 
L 36.375 41.703125 
Q 47.40625 39.59375 52.65625 34.296875 
Q 57.90625 29 57.90625 20.125 
Q 57.90625 9.515625 50.796875 4.046875 
Q 43.703125 -1.421875 29.984375 -1.421875 
Q 24.8125 -1.421875 18.96875 -0.25 
Q 13.140625 0.921875 6.890625 3.21875 
L 6.890625 13.375 
Q 12.890625 10.015625 18.65625 8.296875 
Q 24.421875 6.59375 29.984375 6.59375 
Q 38.421875 6.59375 43.015625 9.90625 
Q 47.609375 13.234375 47.609375 19.390625 
Q 47.609375 24.75 44.3125 27.78125 
Q 41.015625 30.8125 33.5 32.328125 
L 27.484375 33.5 
Q 16.453125 35.6875 11.515625 40.375 
Q 6.59375 45.0625 6.59375 53.421875 
Q 6.59375 63.09375 13.40625 68.65625 
Q 20.21875 74.21875 32.171875 74.21875 
Q 37.3125 74.21875 42.625 73.28125 
Q 47.953125 72.359375 53.515625 70.515625 
z
" id="DejaVuSans-83"/>
      <path d="M 18.109375 8.203125 
L 18.109375 -20.796875 
L 9.078125 -20.796875 
L 9.078125 54.6875 
L 18.109375 54.6875 
L 18.109375 46.390625 
Q 20.953125 51.265625 25.265625 53.625 
Q 29.59375 56 35.59375 56 
Q 45.5625 56 51.78125 48.09375 
Q 58.015625 40.1875 58.015625 27.296875 
Q 58.015625 14.40625 51.78125 6.484375 
Q 45.5625 -1.421875 35.59375 -1.421875 
Q 29.59375 -1.421875 25.265625 0.953125 
Q 20.953125 3.328125 18.109375 8.203125 
z
M 48.6875 27.296875 
Q 48.6875 37.203125 44.609375 42.84375 
Q 40.53125 48.484375 33.40625 48.484375 
Q 26.265625 48.484375 22.1875 42.84375 
Q 18.109375 37.203125 18.109375 27.296875 
Q 18.109375 17.390625 22.1875 11.75 
Q 26.265625 6.109375 33.40625 6.109375 
Q 40.53125 6.109375 44.609375 11.75 
Q 48.6875 17.390625 48.6875 27.296875 
z
" id="DejaVuSans-112"/>
      <path d="M 8.5 21.578125 
L 8.5 54.6875 
L 17.484375 54.6875 
L 17.484375 21.921875 
Q 17.484375 14.15625 20.5 10.265625 
Q 23.53125 6.390625 29.59375 6.390625 
Q 36.859375 6.390625 41.078125 11.03125 
Q 45.3125 15.671875 45.3125 23.6875 
L 45.3125 54.6875 
L 54.296875 54.6875 
L 54.296875 0 
L 45.3125 0 
L 45.3125 8.40625 
Q 42.046875 3.421875 37.71875 1 
Q 33.40625 -1.421875 27.6875 -1.421875 
Q 18.265625 -1.421875 13.375 4.4375 
Q 8.5 10.296875 8.5 21.578125 
z
M 31.109375 56 
z
" id="DejaVuSans-117"/>
      <path d="M 45.40625 27.984375 
Q 45.40625 37.75 41.375 43.109375 
Q 37.359375 48.484375 30.078125 48.484375 
Q 22.859375 48.484375 18.828125 43.109375 
Q 14.796875 37.75 14.796875 27.984375 
Q 14.796875 18.265625 18.828125 12.890625 
Q 22.859375 7.515625 30.078125 7.515625 
Q 37.359375 7.515625 41.375 12.890625 
Q 45.40625 18.265625 45.40625 27.984375 
z
M 54.390625 6.78125 
Q 54.390625 -7.171875 48.1875 -13.984375 
Q 42 -20.796875 29.203125 -20.796875 
Q 24.46875 -20.796875 20.265625 -20.09375 
Q 16.0625 -19.390625 12.109375 -17.921875 
L 12.109375 -9.1875 
Q 16.0625 -11.328125 19.921875 -12.34375 
Q 23.78125 -13.375 27.78125 -13.375 
Q 36.625 -13.375 41.015625 -8.765625 
Q 45.40625 -4.15625 45.40625 5.171875 
L 45.40625 9.625 
Q 42.625 4.78125 38.28125 2.390625 
Q 33.9375 0 27.875 0 
Q 17.828125 0 11.671875 7.65625 
Q 5.515625 15.328125 5.515625 27.984375 
Q 5.515625 40.671875 11.671875 48.328125 
Q 17.828125 56 27.875 56 
Q 33.9375 56 38.28125 53.609375 
Q 42.625 51.21875 45.40625 46.390625 
L 45.40625 54.6875 
L 54.390625 54.6875 
z
" id="DejaVuSans-103"/>
      <path d="M 28.609375 0 
L 0.78125 72.90625 
L 11.078125 72.90625 
L 34.1875 11.53125 
L 57.328125 72.90625 
L 67.578125 72.90625 
L 39.796875 0 
z
" id="DejaVuSans-86"/>
     </defs>
     <g transform="translate(140.217188 392.382369)rotate(-90)scale(0.1 -0.1)">
      <use xlink:href="#DejaVuSans-83"/>
      <use x="63.476562" xlink:href="#DejaVuSans-112"/>
      <use x="126.953125" xlink:href="#DejaVuSans-97"/>
      <use x="188.232422" xlink:href="#DejaVuSans-110"/>
      <use x="251.611328" xlink:href="#DejaVuSans-110"/>
      <use x="314.990234" xlink:href="#DejaVuSans-117"/>
      <use x="378.369141" xlink:href="#DejaVuSans-110"/>
      <use x="441.748047" xlink:href="#DejaVuSans-103"/>
      <use x="505.224609" xlink:href="#DejaVuSans-32"/>
      <use x="537.011719" xlink:href="#DejaVuSans-105"/>
      <use x="564.794922" xlink:href="#DejaVuSans-110"/>
      <use x="628.173828" xlink:href="#DejaVuSans-32"/>
      <use x="659.960938" xlink:href="#DejaVuSans-86"/>
     </g>
    </g>
   </g>
   <g id="LineCollection_1">
    <path clip-path="url(#p5d1b309da8)" d="M 216.883636 129.541119 
L 216.883636 129.541119 
" style="fill:none;stroke:#1f77b4;stroke-width:1.5;"/>
    <path clip-path="url(#p5d1b309da8)" d="M 230.507532 129.541119 
L 230.507532 129.541119 
" style="fill:none;stroke:#1f77b4;stroke-width:1.5;"/>
    <path clip-path="url(#p5d1b309da8)" d="M 244.131429 196.405142 
L 244.131429 157.989508 
" style="fill:none;stroke:#1f77b4;stroke-width:1.5;"/>
    <path clip-path="url(#p5d1b309da8)" d="M 257.755325 236.12452 
L 257.755325 197.802342 
" style="fill:none;stroke:#1f77b4;stroke-width:1.5;"/>
    <path clip-path="url(#p5d1b309da8)" d="M 271.379221 250.454923 
L 271.379221 237.124622 
" style="fill:none;stroke:#1f77b4;stroke-width:1.5;"/>
    <path clip-path="url(#p5d1b309da8)" d="M 285.003117 272.39399 
L 285.003117 268.207029 
" style="fill:none;stroke:#1f77b4;stroke-width:1.5;"/>
    <path clip-path="url(#p5d1b309da8)" d="M 298.627013 317.166707 
L 298.627013 292.235987 
" style="fill:none;stroke:#1f77b4;stroke-width:1.5;"/>
    <path clip-path="url(#p5d1b309da8)" d="M 312.250909 331.342834 
L 312.250909 308.357846 
" style="fill:none;stroke:#1f77b4;stroke-width:1.5;"/>
    <path clip-path="url(#p5d1b309da8)" d="M 325.874805 342.573829 
L 325.874805 342.573829 
" style="fill:none;stroke:#1f77b4;stroke-width:1.5;"/>
    <path clip-path="url(#p5d1b309da8)" d="M 339.498701 370.556644 
L 339.498701 355.619536 
" style="fill:none;stroke:#1f77b4;stroke-width:1.5;"/>
    <path clip-path="url(#p5d1b309da8)" d="M 353.122597 393.710954 
L 353.122597 382.961868 
" style="fill:none;stroke:#1f77b4;stroke-width:1.5;"/>
    <path clip-path="url(#p5d1b309da8)" d="M 366.746494 394.801028 
L 366.746494 390.077499 
" style="fill:none;stroke:#1f77b4;stroke-width:1.5;"/>
    <path clip-path="url(#p5d1b309da8)" d="M 380.37039 420.430332 
L 380.37039 390.958932 
" style="fill:none;stroke:#1f77b4;stroke-width:1.5;"/>
    <path clip-path="url(#p5d1b309da8)" d="M 393.994286 424.735496 
L 393.994286 405.590009 
" style="fill:none;stroke:#1f77b4;stroke-width:1.5;"/>
    <path clip-path="url(#p5d1b309da8)" d="M 407.618182 428.652191 
L 407.618182 426.290427 
" style="fill:none;stroke:#1f77b4;stroke-width:1.5;"/>
    <path clip-path="url(#p5d1b309da8)" d="M 421.242078 437.255033 
L 421.242078 437.255033 
" style="fill:none;stroke:#1f77b4;stroke-width:1.5;"/>
    <path clip-path="url(#p5d1b309da8)" d="M 434.865974 455.634998 
L 434.865974 428.974397 
" style="fill:none;stroke:#1f77b4;stroke-width:1.5;"/>
    <path clip-path="url(#p5d1b309da8)" d="M 448.48987 462.21396 
L 448.48987 454.587045 
" style="fill:none;stroke:#1f77b4;stroke-width:1.5;"/>
    <path clip-path="url(#p5d1b309da8)" d="M 462.113766 465.659395 
L 462.113766 465.659395 
" style="fill:none;stroke:#1f77b4;stroke-width:1.5;"/>
    <path clip-path="url(#p5d1b309da8)" d="M 475.737662 487.34251 
L 475.737662 459.75648 
" style="fill:none;stroke:#1f77b4;stroke-width:1.5;"/>
    <path clip-path="url(#p5d1b309da8)" d="M 489.361558 494.220506 
L 489.361558 470.552309 
" style="fill:none;stroke:#1f77b4;stroke-width:1.5;"/>
    <path clip-path="url(#p5d1b309da8)" d="M 502.985455 499.665372 
L 502.985455 482.15006 
" style="fill:none;stroke:#1f77b4;stroke-width:1.5;"/>
    <path clip-path="url(#p5d1b309da8)" d="M 516.609351 506.528971 
L 516.609351 484.754581 
" style="fill:none;stroke:#1f77b4;stroke-width:1.5;"/>
    <path clip-path="url(#p5d1b309da8)" d="M 530.233247 508.810222 
L 530.233247 489.416619 
" style="fill:none;stroke:#1f77b4;stroke-width:1.5;"/>
    <path clip-path="url(#p5d1b309da8)" d="M 543.857143 512.119138 
L 543.857143 492.419783 
" style="fill:none;stroke:#1f77b4;stroke-width:1.5;"/>
    <path clip-path="url(#p5d1b309da8)" d="M 557.481039 525.855092 
L 557.481039 498.882486 
" style="fill:none;stroke:#1f77b4;stroke-width:1.5;"/>
    <path clip-path="url(#p5d1b309da8)" d="M 571.104935 525.715171 
L 571.104935 501.547239 
" style="fill:none;stroke:#1f77b4;stroke-width:1.5;"/>
    <path clip-path="url(#p5d1b309da8)" d="M 584.728831 528.017456 
L 584.728831 506.188242 
" style="fill:none;stroke:#1f77b4;stroke-width:1.5;"/>
    <path clip-path="url(#p5d1b309da8)" d="M 598.352727 532.953518 
L 598.352727 514.50755 
" style="fill:none;stroke:#1f77b4;stroke-width:1.5;"/>
    <path clip-path="url(#p5d1b309da8)" d="M 611.976623 535.891703 
L 611.976623 519.143861 
" style="fill:none;stroke:#1f77b4;stroke-width:1.5;"/>
    <path clip-path="url(#p5d1b309da8)" d="M 625.600519 544.141803 
L 625.600519 519.099465 
" style="fill:none;stroke:#1f77b4;stroke-width:1.5;"/>
    <path clip-path="url(#p5d1b309da8)" d="M 639.224416 531.936238 
L 639.224416 531.936238 
" style="fill:none;stroke:#1f77b4;stroke-width:1.5;"/>
    <path clip-path="url(#p5d1b309da8)" d="M 652.848312 550.309719 
L 652.848312 521.137253 
" style="fill:none;stroke:#1f77b4;stroke-width:1.5;"/>
    <path clip-path="url(#p5d1b309da8)" d="M 666.472208 551.028527 
L 666.472208 536.829854 
" style="fill:none;stroke:#1f77b4;stroke-width:1.5;"/>
    <path clip-path="url(#p5d1b309da8)" d="M 680.096104 552.885135 
L 680.096104 536.866871 
" style="fill:none;stroke:#1f77b4;stroke-width:1.5;"/>
    <path clip-path="url(#p5d1b309da8)" d="M 693.72 551.810004 
L 693.72 530.367504 
" style="fill:none;stroke:#1f77b4;stroke-width:1.5;"/>
    <path clip-path="url(#p5d1b309da8)" d="M 707.343896 557.820275 
L 707.343896 535.718978 
" style="fill:none;stroke:#1f77b4;stroke-width:1.5;"/>
    <path clip-path="url(#p5d1b309da8)" d="M 720.967792 560.496854 
L 720.967792 544.404144 
" style="fill:none;stroke:#1f77b4;stroke-width:1.5;"/>
    <path clip-path="url(#p5d1b309da8)" d="M 734.591688 571.031608 
L 734.591688 550.912007 
" style="fill:none;stroke:#1f77b4;stroke-width:1.5;"/>
    <path clip-path="url(#p5d1b309da8)" d="M 748.215584 571.452693 
L 748.215584 551.753338 
" style="fill:none;stroke:#1f77b4;stroke-width:1.5;"/>
    <path clip-path="url(#p5d1b309da8)" d="M 761.839481 561.837085 
L 761.839481 559.475321 
" style="fill:none;stroke:#1f77b4;stroke-width:1.5;"/>
    <path clip-path="url(#p5d1b309da8)" d="M 775.463377 575.669778 
L 775.463377 550.061084 
" style="fill:none;stroke:#1f77b4;stroke-width:1.5;"/>
    <path clip-path="url(#p5d1b309da8)" d="M 789.087273 571.470848 
L 789.087273 563.096927 
" style="fill:none;stroke:#1f77b4;stroke-width:1.5;"/>
    <path clip-path="url(#p5d1b309da8)" d="M 802.711169 583.671001 
L 802.711169 550.896774 
" style="fill:none;stroke:#1f77b4;stroke-width:1.5;"/>
    <path clip-path="url(#p5d1b309da8)" d="M 816.335065 588.784383 
L 816.335065 533.159232 
" style="fill:none;stroke:#1f77b4;stroke-width:1.5;"/>
    <path clip-path="url(#p5d1b309da8)" d="M 829.958961 569.80872 
L 829.958961 569.80872 
" style="fill:none;stroke:#1f77b4;stroke-width:1.5;"/>
    <path clip-path="url(#p5d1b309da8)" d="M 843.582857 587.943993 
L 843.582857 535.893246 
" style="fill:none;stroke:#1f77b4;stroke-width:1.5;"/>
    <path clip-path="url(#p5d1b309da8)" d="M 857.206753 587.663544 
L 857.206753 528.599199 
" style="fill:none;stroke:#1f77b4;stroke-width:1.5;"/>
    <path clip-path="url(#p5d1b309da8)" d="M 870.830649 592.692381 
L 870.830649 519.151905 
" style="fill:none;stroke:#1f77b4;stroke-width:1.5;"/>
    <path clip-path="url(#p5d1b309da8)" d="M 884.454545 560.340599 
L 884.454545 560.340599 
" style="fill:none;stroke:#1f77b4;stroke-width:1.5;"/>
    <path clip-path="url(#p5d1b309da8)" d="M 898.078442 550.872479 
L 898.078442 550.872479 
" style="fill:none;stroke:#1f77b4;stroke-width:1.5;"/>
    <path clip-path="url(#p5d1b309da8)" d="M 911.702338 593.992935 
L 911.702338 560.142289 
" style="fill:none;stroke:#1f77b4;stroke-width:1.5;"/>
    <path clip-path="url(#p5d1b309da8)" d="M 925.326234 592.233383 
L 925.326234 562.533049 
" style="fill:none;stroke:#1f77b4;stroke-width:1.5;"/>
    <path clip-path="url(#p5d1b309da8)" d="M 938.95013 590.579293 
L 938.95013 560.399891 
" style="fill:none;stroke:#1f77b4;stroke-width:1.5;"/>
    <path clip-path="url(#p5d1b309da8)" d="M 952.574026 596.858333 
L 952.574026 566.745012 
" style="fill:none;stroke:#1f77b4;stroke-width:1.5;"/>
    <path clip-path="url(#p5d1b309da8)" d="M 966.197922 589.69863 
L 966.197922 575.16713 
" style="fill:none;stroke:#1f77b4;stroke-width:1.5;"/>
    <path clip-path="url(#p5d1b309da8)" d="M 979.821818 595.356534 
L 979.821818 564.459562 
" style="fill:none;stroke:#1f77b4;stroke-width:1.5;"/>
    <path clip-path="url(#p5d1b309da8)" d="M 993.445714 596.866489 
L 993.445714 567.368064 
" style="fill:none;stroke:#1f77b4;stroke-width:1.5;"/>
    <path clip-path="url(#p5d1b309da8)" d="M 1007.06961 599.222857 
L 1007.06961 573.848608 
" style="fill:none;stroke:#1f77b4;stroke-width:1.5;"/>
    <path clip-path="url(#p5d1b309da8)" d="M 1020.693506 596.249716 
L 1020.693506 580.608997 
" style="fill:none;stroke:#1f77b4;stroke-width:1.5;"/>
    <path clip-path="url(#p5d1b309da8)" d="M 1034.317403 594.832936 
L 1034.317403 579.500946 
" style="fill:none;stroke:#1f77b4;stroke-width:1.5;"/>
    <path clip-path="url(#p5d1b309da8)" d="M 1047.941299 602.6724 
L 1047.941299 568.505441 
" style="fill:none;stroke:#1f77b4;stroke-width:1.5;"/>
    <path clip-path="url(#p5d1b309da8)" d="M 1061.565195 595.149755 
L 1061.565195 570.347214 
" style="fill:none;stroke:#1f77b4;stroke-width:1.5;"/>
    <path clip-path="url(#p5d1b309da8)" d="M 1075.189091 597.78835 
L 1075.189091 569.602243 
" style="fill:none;stroke:#1f77b4;stroke-width:1.5;"/>
    <path clip-path="url(#p5d1b309da8)" d="M 1088.812987 598.715923 
L 1088.812987 572.461918 
" style="fill:none;stroke:#1f77b4;stroke-width:1.5;"/>
    <path clip-path="url(#p5d1b309da8)" d="M 1102.436883 597.822876 
L 1102.436883 564.518053 
" style="fill:none;stroke:#1f77b4;stroke-width:1.5;"/>
    <path clip-path="url(#p5d1b309da8)" d="M 1116.060779 593.596462 
L 1116.060779 578.212587 
" style="fill:none;stroke:#1f77b4;stroke-width:1.5;"/>
    <path clip-path="url(#p5d1b309da8)" d="M 1129.684675 600.971246 
L 1129.684675 569.575387 
" style="fill:none;stroke:#1f77b4;stroke-width:1.5;"/>
    <path clip-path="url(#p5d1b309da8)" d="M 1143.308571 599.83049 
L 1143.308571 574.503391 
" style="fill:none;stroke:#1f77b4;stroke-width:1.5;"/>
    <path clip-path="url(#p5d1b309da8)" d="M 1156.932468 597.980245 
L 1156.932468 573.828804 
" style="fill:none;stroke:#1f77b4;stroke-width:1.5;"/>
    <path clip-path="url(#p5d1b309da8)" d="M 1170.556364 600.426817 
L 1170.556364 578.32552 
" style="fill:none;stroke:#1f77b4;stroke-width:1.5;"/>
   </g>
   <g id="line2d_29">
    <path clip-path="url(#p5d1b309da8)" d="M 216.883636 109.2564 
L 230.507532 148.814032 
L 244.131429 184.743049 
L 257.755325 217.367463 
L 271.379221 246.987166 
L 285.003117 273.879179 
L 298.627013 298.298882 
L 312.250909 320.4812 
L 325.874805 340.641758 
L 339.498701 358.978008 
L 353.122597 375.670315 
L 366.746494 390.883018 
L 380.37039 404.765449 
L 393.994286 417.452928 
L 407.618182 429.067717 
L 421.242078 439.719947 
L 434.865974 449.508506 
L 448.48987 458.5219 
L 462.113766 466.839075 
L 475.737662 474.53021 
L 489.361558 481.657477 
L 502.985455 488.27576 
L 516.609351 494.433356 
L 530.233247 500.172626 
L 543.857143 505.530624 
L 557.481039 510.539692 
L 571.104935 515.228014 
L 584.728831 519.620147 
L 598.352727 523.73751 
L 611.976623 527.598847 
L 625.600519 531.220652 
L 639.224416 534.617565 
L 652.848312 537.802728 
L 666.472208 540.788116 
L 680.096104 543.584829 
L 693.72 546.203354 
L 707.343896 548.653793 
L 720.967792 550.946055 
L 734.591688 553.090021 
L 748.215584 555.095669 
L 761.839481 556.973172 
L 775.463377 558.732956 
L 789.087273 560.385734 
L 802.711169 561.942495 
L 816.335065 563.414473 
L 829.958961 564.813071 
L 843.582857 566.149761 
L 857.206753 567.435943 
L 870.830649 568.682779 
L 884.454545 569.900984 
L 898.078442 571.100597 
L 911.702338 572.290703 
L 925.326234 573.479136 
L 938.95013 574.672139 
L 952.574026 575.873999 
L 966.197922 577.08664 
L 979.821818 578.30919 
L 993.445714 579.537511 
L 1007.06961 580.763698 
L 1020.693506 581.975545 
L 1034.317403 583.155972 
L 1047.941299 584.28243 
L 1061.565195 585.326261 
L 1075.189091 586.252034 
L 1088.812987 587.016839 
L 1102.436883 587.569561 
L 1116.060779 587.850105 
L 1129.684675 587.788598 
L 1143.308571 587.304558 
L 1156.932468 586.306024 
L 1170.556364 584.688657 
" style="fill:none;stroke:#ff0000;stroke-linecap:square;stroke-width:1.5;"/>
   </g>
   <g id="line2d_30">
    <defs>
     <path d="M 0 3 
C 0.795609 3 1.55874 2.683901 2.12132 2.12132 
C 2.683901 1.55874 3 0.795609 3 0 
C 3 -0.795609 2.683901 -1.55874 2.12132 -2.12132 
C 1.55874 -2.683901 0.795609 -3 0 -3 
C -0.795609 -3 -1.55874 -2.683901 -2.12132 -2.12132 
C -2.683901 -1.55874 -3 -0.795609 -3 0 
C -3 0.795609 -2.683901 1.55874 -2.12132 2.12132 
C -1.55874 2.683901 -0.795609 3 0 3 
z
" id="mac0cc81b75" style="stroke:#1f77b4;"/>
    </defs>
    <g clip-path="url(#p5d1b309da8)">
     <use style="fill:#1f77b4;stroke:#1f77b4;" x="216.883636" xlink:href="#mac0cc81b75" y="129.541119"/>
     <use style="fill:#1f77b4;stroke:#1f77b4;" x="230.507532" xlink:href="#mac0cc81b75" y="129.541119"/>
     <use style="fill:#1f77b4;stroke:#1f77b4;" x="244.131429" xlink:href="#mac0cc81b75" y="177.197325"/>
     <use style="fill:#1f77b4;stroke:#1f77b4;" x="257.755325" xlink:href="#mac0cc81b75" y="216.963431"/>
     <use style="fill:#1f77b4;stroke:#1f77b4;" x="271.379221" xlink:href="#mac0cc81b75" y="243.789772"/>
     <use style="fill:#1f77b4;stroke:#1f77b4;" x="285.003117" xlink:href="#mac0cc81b75" y="270.300509"/>
     <use style="fill:#1f77b4;stroke:#1f77b4;" x="298.627013" xlink:href="#mac0cc81b75" y="304.701347"/>
     <use style="fill:#1f77b4;stroke:#1f77b4;" x="312.250909" xlink:href="#mac0cc81b75" y="319.85034"/>
     <use style="fill:#1f77b4;stroke:#1f77b4;" x="325.874805" xlink:href="#mac0cc81b75" y="342.573829"/>
     <use style="fill:#1f77b4;stroke:#1f77b4;" x="339.498701" xlink:href="#mac0cc81b75" y="363.08809"/>
     <use style="fill:#1f77b4;stroke:#1f77b4;" x="353.122597" xlink:href="#mac0cc81b75" y="388.336411"/>
     <use style="fill:#1f77b4;stroke:#1f77b4;" x="366.746494" xlink:href="#mac0cc81b75" y="392.439263"/>
     <use style="fill:#1f77b4;stroke:#1f77b4;" x="380.37039" xlink:href="#mac0cc81b75" y="405.694632"/>
     <use style="fill:#1f77b4;stroke:#1f77b4;" x="393.994286" xlink:href="#mac0cc81b75" y="415.162752"/>
     <use style="fill:#1f77b4;stroke:#1f77b4;" x="407.618182" xlink:href="#mac0cc81b75" y="427.471309"/>
     <use style="fill:#1f77b4;stroke:#1f77b4;" x="421.242078" xlink:href="#mac0cc81b75" y="437.255033"/>
     <use style="fill:#1f77b4;stroke:#1f77b4;" x="434.865974" xlink:href="#mac0cc81b75" y="442.304698"/>
     <use style="fill:#1f77b4;stroke:#1f77b4;" x="448.48987" xlink:href="#mac0cc81b75" y="458.400502"/>
     <use style="fill:#1f77b4;stroke:#1f77b4;" x="462.113766" xlink:href="#mac0cc81b75" y="465.659395"/>
     <use style="fill:#1f77b4;stroke:#1f77b4;" x="475.737662" xlink:href="#mac0cc81b75" y="473.549495"/>
     <use style="fill:#1f77b4;stroke:#1f77b4;" x="489.361558" xlink:href="#mac0cc81b75" y="482.386408"/>
     <use style="fill:#1f77b4;stroke:#1f77b4;" x="502.985455" xlink:href="#mac0cc81b75" y="490.907716"/>
     <use style="fill:#1f77b4;stroke:#1f77b4;" x="516.609351" xlink:href="#mac0cc81b75" y="495.641776"/>
     <use style="fill:#1f77b4;stroke:#1f77b4;" x="530.233247" xlink:href="#mac0cc81b75" y="499.11342"/>
     <use style="fill:#1f77b4;stroke:#1f77b4;" x="543.857143" xlink:href="#mac0cc81b75" y="502.269461"/>
     <use style="fill:#1f77b4;stroke:#1f77b4;" x="557.481039" xlink:href="#mac0cc81b75" y="512.368789"/>
     <use style="fill:#1f77b4;stroke:#1f77b4;" x="571.104935" xlink:href="#mac0cc81b75" y="513.631205"/>
     <use style="fill:#1f77b4;stroke:#1f77b4;" x="584.728831" xlink:href="#mac0cc81b75" y="517.102849"/>
     <use style="fill:#1f77b4;stroke:#1f77b4;" x="598.352727" xlink:href="#mac0cc81b75" y="523.730534"/>
     <use style="fill:#1f77b4;stroke:#1f77b4;" x="611.976623" xlink:href="#mac0cc81b75" y="527.517782"/>
     <use style="fill:#1f77b4;stroke:#1f77b4;" x="625.600519" xlink:href="#mac0cc81b75" y="531.620634"/>
     <use style="fill:#1f77b4;stroke:#1f77b4;" x="639.224416" xlink:href="#mac0cc81b75" y="531.936238"/>
     <use style="fill:#1f77b4;stroke:#1f77b4;" x="652.848312" xlink:href="#mac0cc81b75" y="535.723486"/>
     <use style="fill:#1f77b4;stroke:#1f77b4;" x="666.472208" xlink:href="#mac0cc81b75" y="543.929191"/>
     <use style="fill:#1f77b4;stroke:#1f77b4;" x="680.096104" xlink:href="#mac0cc81b75" y="544.876003"/>
     <use style="fill:#1f77b4;stroke:#1f77b4;" x="693.72" xlink:href="#mac0cc81b75" y="541.088754"/>
     <use style="fill:#1f77b4;stroke:#1f77b4;" x="707.343896" xlink:href="#mac0cc81b75" y="546.769627"/>
     <use style="fill:#1f77b4;stroke:#1f77b4;" x="720.967792" xlink:href="#mac0cc81b75" y="552.450499"/>
     <use style="fill:#1f77b4;stroke:#1f77b4;" x="734.591688" xlink:href="#mac0cc81b75" y="560.971807"/>
     <use style="fill:#1f77b4;stroke:#1f77b4;" x="748.215584" xlink:href="#mac0cc81b75" y="561.603015"/>
     <use style="fill:#1f77b4;stroke:#1f77b4;" x="761.839481" xlink:href="#mac0cc81b75" y="560.656203"/>
     <use style="fill:#1f77b4;stroke:#1f77b4;" x="775.463377" xlink:href="#mac0cc81b75" y="562.865431"/>
     <use style="fill:#1f77b4;stroke:#1f77b4;" x="789.087273" xlink:href="#mac0cc81b75" y="567.283888"/>
     <use style="fill:#1f77b4;stroke:#1f77b4;" x="802.711169" xlink:href="#mac0cc81b75" y="567.283888"/>
     <use style="fill:#1f77b4;stroke:#1f77b4;" x="816.335065" xlink:href="#mac0cc81b75" y="560.971807"/>
     <use style="fill:#1f77b4;stroke:#1f77b4;" x="829.958961" xlink:href="#mac0cc81b75" y="569.80872"/>
     <use style="fill:#1f77b4;stroke:#1f77b4;" x="843.582857" xlink:href="#mac0cc81b75" y="561.918619"/>
     <use style="fill:#1f77b4;stroke:#1f77b4;" x="857.206753" xlink:href="#mac0cc81b75" y="558.131371"/>
     <use style="fill:#1f77b4;stroke:#1f77b4;" x="870.830649" xlink:href="#mac0cc81b75" y="555.922143"/>
     <use style="fill:#1f77b4;stroke:#1f77b4;" x="884.454545" xlink:href="#mac0cc81b75" y="560.340599"/>
     <use style="fill:#1f77b4;stroke:#1f77b4;" x="898.078442" xlink:href="#mac0cc81b75" y="550.872479"/>
     <use style="fill:#1f77b4;stroke:#1f77b4;" x="911.702338" xlink:href="#mac0cc81b75" y="577.067612"/>
     <use style="fill:#1f77b4;stroke:#1f77b4;" x="925.326234" xlink:href="#mac0cc81b75" y="577.383216"/>
     <use style="fill:#1f77b4;stroke:#1f77b4;" x="938.95013" xlink:href="#mac0cc81b75" y="575.489592"/>
     <use style="fill:#1f77b4;stroke:#1f77b4;" x="952.574026" xlink:href="#mac0cc81b75" y="581.801672"/>
     <use style="fill:#1f77b4;stroke:#1f77b4;" x="966.197922" xlink:href="#mac0cc81b75" y="582.43288"/>
     <use style="fill:#1f77b4;stroke:#1f77b4;" x="979.821818" xlink:href="#mac0cc81b75" y="579.908048"/>
     <use style="fill:#1f77b4;stroke:#1f77b4;" x="993.445714" xlink:href="#mac0cc81b75" y="582.117276"/>
     <use style="fill:#1f77b4;stroke:#1f77b4;" x="1007.06961" xlink:href="#mac0cc81b75" y="586.535733"/>
     <use style="fill:#1f77b4;stroke:#1f77b4;" x="1020.693506" xlink:href="#mac0cc81b75" y="588.429357"/>
     <use style="fill:#1f77b4;stroke:#1f77b4;" x="1034.317403" xlink:href="#mac0cc81b75" y="587.166941"/>
     <use style="fill:#1f77b4;stroke:#1f77b4;" x="1047.941299" xlink:href="#mac0cc81b75" y="585.588921"/>
     <use style="fill:#1f77b4;stroke:#1f77b4;" x="1061.565195" xlink:href="#mac0cc81b75" y="582.748484"/>
     <use style="fill:#1f77b4;stroke:#1f77b4;" x="1075.189091" xlink:href="#mac0cc81b75" y="583.695296"/>
     <use style="fill:#1f77b4;stroke:#1f77b4;" x="1088.812987" xlink:href="#mac0cc81b75" y="585.588921"/>
     <use style="fill:#1f77b4;stroke:#1f77b4;" x="1102.436883" xlink:href="#mac0cc81b75" y="581.170464"/>
     <use style="fill:#1f77b4;stroke:#1f77b4;" x="1116.060779" xlink:href="#mac0cc81b75" y="585.904525"/>
     <use style="fill:#1f77b4;stroke:#1f77b4;" x="1129.684675" xlink:href="#mac0cc81b75" y="585.273317"/>
     <use style="fill:#1f77b4;stroke:#1f77b4;" x="1143.308571" xlink:href="#mac0cc81b75" y="587.166941"/>
     <use style="fill:#1f77b4;stroke:#1f77b4;" x="1156.932468" xlink:href="#mac0cc81b75" y="585.904525"/>
     <use style="fill:#1f77b4;stroke:#1f77b4;" x="1170.556364" xlink:href="#mac0cc81b75" y="589.376169"/>
    </g>
   </g>
   <g id="patch_3">
    <path d="M 169.2 627.3432 
L 169.2 84.5856 
" style="fill:none;stroke:#000000;stroke-linecap:square;stroke-linejoin:miter;stroke-width:0.8;"/>
   </g>
   <g id="patch_4">
    <path d="M 1218.24 627.3432 
L 1218.24 84.5856 
" style="fill:none;stroke:#000000;stroke-linecap:square;stroke-linejoin:miter;stroke-width:0.8;"/>
   </g>
   <g id="patch_5">
    <path d="M 169.2 627.3432 
L 1218.24 627.3432 
" style="fill:none;stroke:#000000;stroke-linecap:square;stroke-linejoin:miter;stroke-width:0.8;"/>
   </g>
   <g id="patch_6">
    <path d="M 169.2 84.5856 
L 1218.24 84.5856 
" style="fill:none;stroke:#000000;stroke-linecap:square;stroke-linejoin:miter;stroke-width:0.8;"/>
   </g>
   <g id="legend_1">
    <g id="patch_7">
     <path d="M 1169.02125 107.263725 
L 1211.24 107.263725 
Q 1213.24 107.263725 1213.24 105.263725 
L 1213.24 91.5856 
Q 1213.24 89.5856 1211.24 89.5856 
L 1169.02125 89.5856 
Q 1167.02125 89.5856 1167.02125 91.5856 
L 1167.02125 105.263725 
Q 1167.02125 107.263725 1169.02125 107.263725 
z
" style="fill:#ffffff;opacity:0.8;stroke:#cccccc;stroke-linejoin:miter;"/>
    </g>
    <g id="patch_8">
     <path d="M 1171.02125 101.184038 
L 1191.02125 101.184038 
L 1191.02125 94.184038 
L 1171.02125 94.184038 
z
" style="fill:#ff0000;stroke:#ff0000;stroke-linejoin:miter;"/>
    </g>
    <g id="text_17">
     <!-- fit -->
     <defs>
      <path d="M 37.109375 75.984375 
L 37.109375 68.5 
L 28.515625 68.5 
Q 23.6875 68.5 21.796875 66.546875 
Q 19.921875 64.59375 19.921875 59.515625 
L 19.921875 54.6875 
L 34.71875 54.6875 
L 34.71875 47.703125 
L 19.921875 47.703125 
L 19.921875 0 
L 10.890625 0 
L 10.890625 47.703125 
L 2.296875 47.703125 
L 2.296875 54.6875 
L 10.890625 54.6875 
L 10.890625 58.5 
Q 10.890625 67.625 15.140625 71.796875 
Q 19.390625 75.984375 28.609375 75.984375 
z
" id="DejaVuSans-102"/>
     </defs>
     <g transform="translate(1199.02125 101.184038)scale(0.1 -0.1)">
      <use xlink:href="#DejaVuSans-102"/>
      <use x="35.205078" xlink:href="#DejaVuSans-105"/>
      <use x="62.988281" xlink:href="#DejaVuSans-116"/>
     </g>
    </g>
   </g>
  </g>
 </g>
 <defs>
  <clipPath id="p5d1b309da8">
   <rect height="542.7576" width="1049.04" x="169.2" y="84.5856"/>
  </clipPath>
 </defs>
</svg>
